<?xml version="1.0" encoding="UTF-8" standalone="no"?>
<!DOCTYPE svg PUBLIC "-//W3C//DTD SVG 1.1//EN" "http://www.w3.org/Graphics/SVG/1.1/DTD/svg11.dtd">
<svg width="100%" height="100%" viewBox="0 0 25 25" version="1.1" xmlns="http://www.w3.org/2000/svg" xmlns:xlink="http://www.w3.org/1999/xlink" xml:space="preserve" xmlns:serif="http://www.serif.com/" style="fill-rule:evenodd;clip-rule:evenodd;stroke-miterlimit:1.41421;"><g><clipPath id="_clip1"><path d="M-21,-21l67,0l0,66.553l-67,0l0,-66.553Zm22,23.999c0,-1.102 0.894,-1.999 1.99,-1.999l19.019,0c1.101,0 1.991,0.892 1.991,1.999l0,18.557c0,1.102 -0.895,1.998 -1.991,1.998l-19.019,0c-1.101,0 -1.99,-0.891 -1.99,-1.998l0,-18.557Zm-2,0l0,18.557c0,2.211 1.784,3.997 3.99,3.997l19.019,0c2.201,0 3.991,-1.791 3.991,-3.997l0,-18.557c0,-2.211 -1.785,-3.999 -3.991,-3.999l-19.019,0c-2.201,0 -3.99,1.793 -3.99,3.999Z"/></clipPath><g clip-path="url(#_clip1)"><clipPath id="_clip2"><path d="M0,2.999c0,-1.656 1.344,-2.999 2.99,-2.999l19.019,0c1.651,0 2.991,1.338 2.991,2.999l0,18.557c0,1.656 -1.345,2.998 -2.991,2.998l-19.019,0c-1.651,0 -2.99,-1.337 -2.99,-2.998l0,-18.557Z"/></clipPath><g clip-path="url(#_clip2)"><path d="M0,2.999c0,-1.656 1.344,-2.999 2.99,-2.999l19.019,0c1.651,0 2.991,1.338 2.991,2.999l0,18.557c0,1.656 -1.345,2.998 -2.991,2.998l-19.019,0c-1.651,0 -2.99,-1.337 -2.99,-2.998l0,-18.557Z" style="fill:#eef1f7;fill-rule:nonzero;"/><clipPath id="_clip3"><path d="M0,2.999c0,-1.656 1.344,-2.999 2.99,-2.999l19.019,0c1.651,0 2.991,1.338 2.991,2.999l0,18.557c0,1.656 -1.345,2.998 -2.991,2.998l-19.019,0c-1.651,0 -2.99,-1.337 -2.99,-2.998l0,-18.557Z" clip-rule="nonzero"/></clipPath><g clip-path="url(#_clip3)"><path d="M0,2.999c0,-1.656 1.344,-2.999 2.99,-2.999l19.019,0c1.651,0 2.991,1.338 2.991,2.999l0,18.557c0,1.656 -1.345,2.998 -2.991,2.998l-19.019,0c-1.651,0 -2.99,-1.337 -2.99,-2.998l0,-18.557Z" style="fill:none;stroke:#153153;stroke-width:4px;"/></g></g></g><path d="M11.704,16.624c0.576,0 1.164,-0.312 1.584,-0.732l0.048,0l0.12,0.588l1.44,0l0,-8.412l-1.764,0l0,2.028l0.072,0.912c-0.408,-0.384 -0.804,-0.624 -1.464,-0.624c-1.26,0 -2.472,1.176 -2.472,3.12c0,1.944 0.96,3.12 2.436,3.12Zm0.456,-1.44c-0.684,0 -1.08,-0.528 -1.08,-1.704c0,-1.128 0.504,-1.656 1.068,-1.656c0.324,0 0.672,0.096 0.984,0.384l0,2.436c-0.288,0.396 -0.588,0.54 -0.972,0.54Z" style="fill:#153153;fill-rule:nonzero;"/></g></svg>