<?xml version="1.0" encoding="UTF-8" standalone="no"?>
<!DOCTYPE svg PUBLIC "-//W3C//DTD SVG 1.1//EN" "http://www.w3.org/Graphics/SVG/1.1/DTD/svg11.dtd">
<svg width="100%" height="100%" viewBox="0 0 25 25" version="1.1" xmlns="http://www.w3.org/2000/svg" xmlns:xlink="http://www.w3.org/1999/xlink" xml:space="preserve" xmlns:serif="http://www.serif.com/" style="fill-rule:evenodd;clip-rule:evenodd;stroke-miterlimit:1.41421;">
    <g>
        <g>
            <clipPath id="_clip1">
                <path d="M-21,-21L46,-21L46,45.553L-21,45.553L-21,-21ZM1,2.999C1,1.897 1.894,1 2.99,1L22.009,1C23.11,1 24,1.892 24,2.999L24,21.556C24,22.658 23.105,23.554 22.009,23.554L2.99,23.554C1.889,23.554 1,22.663 1,21.556L1,2.999ZM-1,2.999L-1,21.556C-1,23.767 0.784,25.553 2.99,25.553L22.009,25.553C24.21,25.553 26,23.762 26,21.556L26,2.999C26,0.788 24.215,-1 22.009,-1L2.99,-1C0.789,-1 -1,0.793 -1,2.999Z"/>
            </clipPath>
            <g clip-path="url(#_clip1)">
                <g>
                    <clipPath id="_clip2">
                        <path d="M0,2.999C0,1.343 1.344,0 2.99,0L22.009,0C23.66,0 25,1.338 25,2.999L25,21.556C25,23.212 23.655,24.554 22.009,24.554L2.99,24.554C1.339,24.554 0,23.217 0,21.556L0,2.999Z"/>
                    </clipPath>
                    <g clip-path="url(#_clip2)">
                        <path d="M0,2.999C0,1.343 1.344,0 2.99,0L22.009,0C23.66,0 25,1.338 25,2.999L25,21.556C25,23.212 23.655,24.554 22.009,24.554L2.99,24.554C1.339,24.554 0,23.217 0,21.556L0,2.999Z" style="fill:rgb(238,241,247);fill-rule:nonzero;"/>
                        <g>
                            <clipPath id="_clip3">
                                <path d="M0,2.999C0,1.343 1.344,0 2.99,0L22.009,0C23.66,0 25,1.338 25,2.999L25,21.556C25,23.212 23.655,24.554 22.009,24.554L2.99,24.554C1.339,24.554 0,23.217 0,21.556L0,2.999Z"/>
                            </clipPath>
                            <g clip-path="url(#_clip3)">
                                <path d="M0,2.999C0,1.343 1.344,0 2.99,0L22.009,0C23.66,0 25,1.338 25,2.999L25,21.556C25,23.212 23.655,24.554 22.009,24.554L2.99,24.554C1.339,24.554 0,23.217 0,21.556L0,2.999Z" style="fill:none;stroke:rgb(21,49,83);stroke-width:4px;"/>
                            </g>
                        </g>
                    </g>
                </g>
            </g>
        </g>
        <g transform="matrix(1,0,0,1,-4,0)">
            <path d="M14.272,16.624C14.848,16.624 15.28,16.504 15.592,16.408L15.316,15.124C15.16,15.184 14.944,15.244 14.752,15.244C14.284,15.244 13.984,14.968 13.984,14.296L13.984,11.908L15.412,11.908L15.412,10.528L13.984,10.528L13.984,8.944L12.52,8.944L12.316,10.528L11.404,10.6L11.404,11.908L12.22,11.908L12.22,14.32C12.22,15.7 12.796,16.624 14.272,16.624Z" style="fill:rgb(21,49,83);fill-rule:nonzero;"/>
        </g>
        <g transform="matrix(1,0,0,1,-3.95243,6.35154)">
            <text x="15.445px" y="11.055px" style="font-family:'ArialMT', 'Arial', sans-serif;font-size:12px;fill:rgb(21,49,83);">+</text>
        </g>
    </g>
</svg>
