<?xml version="1.0" encoding="UTF-8" standalone="no"?><!DOCTYPE svg PUBLIC "-//W3C//DTD SVG 1.1//EN" "http://www.w3.org/Graphics/SVG/1.1/DTD/svg11.dtd"><svg width="100%" height="100%" viewBox="0 0 25 24" version="1.1" xmlns="http://www.w3.org/2000/svg" xmlns:xlink="http://www.w3.org/1999/xlink" xml:space="preserve" xmlns:serif="http://www.serif.com/" style="fill-rule:evenodd;clip-rule:evenodd;stroke-miterlimit:1.41421;"><g><clipPath id="_clip1"><path d="M-21,-21l67,0l0,65.571l-67,0l0,-65.571Zm22,24.01c0,-1.109 0.895,-2.01 1.99,-2.01l19.019,0c1.103,0 1.991,0.891 1.991,2.01l0,17.553c0,1.109 -0.896,2.009 -1.991,2.009l-19.019,0c-1.103,0 -1.99,-0.891 -1.99,-2.009l0,-17.553Zm-2,0l0,17.553c0,2.221 1.781,4.008 3.99,4.008l19.019,0c2.202,0 3.991,-1.797 3.991,-4.008l0,-17.553c0,-2.222 -1.782,-4.01 -3.991,-4.01l-19.019,0c-2.202,0 -3.99,1.798 -3.99,4.01Z"/></clipPath><g clip-path="url(#_clip1)"><clipPath id="_clip2"><path d="M0,3.01c0,-1.662 1.344,-3.01 2.99,-3.01l19.019,0c1.651,0 2.991,1.335 2.991,3.01l0,17.553c0,1.662 -1.345,3.009 -2.991,3.009l-19.019,0c-1.651,0 -2.99,-1.335 -2.99,-3.009l0,-17.553Z"/></clipPath><g clip-path="url(#_clip2)"><path d="M0,3.01c0,-1.662 1.344,-3.01 2.99,-3.01l19.019,0c1.651,0 2.991,1.335 2.991,3.01l0,17.553c0,1.662 -1.345,3.009 -2.991,3.009l-19.019,0c-1.651,0 -2.99,-1.335 -2.99,-3.009l0,-17.553Z" style="fill:#eef1f7;fill-rule:nonzero;"/><clipPath id="_clip3"><path d="M0,3.01c0,-1.662 1.344,-3.01 2.99,-3.01l19.019,0c1.651,0 2.991,1.335 2.991,3.01l0,17.553c0,1.662 -1.345,3.009 -2.991,3.009l-19.019,0c-1.651,0 -2.99,-1.335 -2.99,-3.009l0,-17.553Z" clip-rule="nonzero"/></clipPath><g clip-path="url(#_clip3)"><path d="M0,3.01c0,-1.662 1.344,-3.01 2.99,-3.01l19.019,0c1.651,0 2.991,1.335 2.991,3.01l0,17.553c0,1.662 -1.345,3.009 -2.991,3.009l-19.019,0c-1.651,0 -2.99,-1.335 -2.99,-3.009l0,-17.553Z" style="fill:none;stroke:#153153;stroke-width:4px;"/></g></g></g><path d="M5.44,18.328c1.404,0 2.04,-0.768 2.604,-2.268l2.064,-6.012l-1.692,0l-0.72,2.556c-0.144,0.564 -0.276,1.128 -0.408,1.692l-0.048,0c-0.156,-0.588 -0.3,-1.152 -0.468,-1.692l-0.852,-2.556l-1.776,0l2.292,5.796l-0.084,0.312c-0.156,0.468 -0.456,0.78 -1.044,0.78c-0.132,0 -0.288,-0.048 -0.396,-0.072l-0.312,1.344c0.24,0.072 0.48,0.12 0.84,0.12Z" style="fill:#153153;fill-rule:nonzero;"/><path d="M10.36,17.92l1.152,0l2.412,-10.44l-1.152,0l-2.412,10.44Z" style="fill:#153153;fill-rule:nonzero;"/><path d="M15.052,16l1.764,0l0,-4.02c0.384,-0.372 0.66,-0.576 1.104,-0.576c0.504,0 0.732,0.264 0.732,1.128l0,3.468l1.764,0l0,-3.696c0,-1.488 -0.552,-2.4 -1.848,-2.4c-0.804,0 -1.404,0.42 -1.908,0.9l-0.048,0l-0.12,-0.756l-1.44,0l0,5.952Z" style="fill:#153153;fill-rule:nonzero;"/></g></svg>