<?xml version="1.0" encoding="UTF-8" standalone="no"?>
<!DOCTYPE svg PUBLIC "-//W3C//DTD SVG 1.1//EN" "http://www.w3.org/Graphics/SVG/1.1/DTD/svg11.dtd">
<svg width="100%" height="100%" viewBox="0 0 25 25" version="1.1" xmlns="http://www.w3.org/2000/svg" xmlns:xlink="http://www.w3.org/1999/xlink" xml:space="preserve" xmlns:serif="http://www.serif.com/" style="fill-rule:evenodd;clip-rule:evenodd;stroke-miterlimit:1.41421;"><g><clipPath id="_clip1"><path d="M-21,-21l67,0l0,66.553l-67,0l0,-66.553Zm22,23.999c0,-1.102 0.894,-1.999 1.99,-1.999l19.019,0c1.101,0 1.991,0.892 1.991,1.999l0,18.557c0,1.102 -0.895,1.998 -1.991,1.998l-19.019,0c-1.101,0 -1.99,-0.891 -1.99,-1.998l0,-18.557Zm-2,0l0,18.557c0,2.211 1.784,3.997 3.99,3.997l19.019,0c2.201,0 3.991,-1.791 3.991,-3.997l0,-18.557c0,-2.211 -1.785,-3.999 -3.991,-3.999l-19.019,0c-2.201,0 -3.99,1.793 -3.99,3.999Z"/></clipPath><g clip-path="url(#_clip1)"><clipPath id="_clip2"><path d="M0,2.999c0,-1.656 1.344,-2.999 2.99,-2.999l19.019,0c1.651,0 2.991,1.338 2.991,2.999l0,18.557c0,1.656 -1.345,2.998 -2.991,2.998l-19.019,0c-1.651,0 -2.99,-1.337 -2.99,-2.998l0,-18.557Z"/></clipPath><g clip-path="url(#_clip2)"><path d="M0,2.999c0,-1.656 1.344,-2.999 2.99,-2.999l19.019,0c1.651,0 2.991,1.338 2.991,2.999l0,18.557c0,1.656 -1.345,2.998 -2.991,2.998l-19.019,0c-1.651,0 -2.99,-1.337 -2.99,-2.998l0,-18.557Z" style="fill:#eef1f7;fill-rule:nonzero;"/><clipPath id="_clip3"><path d="M0,2.999c0,-1.656 1.344,-2.999 2.99,-2.999l19.019,0c1.651,0 2.991,1.338 2.991,2.999l0,18.557c0,1.656 -1.345,2.998 -2.991,2.998l-19.019,0c-1.651,0 -2.99,-1.337 -2.99,-2.998l0,-18.557Z" clip-rule="nonzero"/></clipPath><g clip-path="url(#_clip3)"><path d="M0,2.999c0,-1.656 1.344,-2.999 2.99,-2.999l19.019,0c1.651,0 2.991,1.338 2.991,2.999l0,18.557c0,1.656 -1.345,2.998 -2.991,2.998l-19.019,0c-1.651,0 -2.99,-1.337 -2.99,-2.998l0,-18.557Z" style="fill:none;stroke:#153153;stroke-width:4px;"/></g></g></g><path d="M11.08,16.624c0.672,0 1.224,-0.312 1.728,-0.756l0.048,0l0.12,0.612l1.44,0l0,-3.408c0,-1.824 -0.84,-2.688 -2.364,-2.688c-0.936,0 -1.788,0.324 -2.544,0.78l0.636,1.164c0.576,-0.336 1.068,-0.54 1.572,-0.54c0.648,0 0.9,0.336 0.936,0.864c-2.352,0.24 -3.348,0.924 -3.348,2.172c0,1.008 0.684,1.8 1.776,1.8Zm0.6,-1.368c-0.42,0 -0.684,-0.18 -0.684,-0.564c0,-0.456 0.408,-0.816 1.656,-0.984l0,1.044c-0.312,0.312 -0.576,0.504 -0.972,0.504Z" style="fill:#153153;fill-rule:nonzero;"/></g></svg>