<?xml version="1.0" encoding="UTF-8" standalone="no"?><!DOCTYPE svg PUBLIC "-//W3C//DTD SVG 1.1//EN" "http://www.w3.org/Graphics/SVG/1.1/DTD/svg11.dtd"><svg width="100%" height="100%" viewBox="0 0 25 25" version="1.1" xmlns="http://www.w3.org/2000/svg" xmlns:xlink="http://www.w3.org/1999/xlink" xml:space="preserve" xmlns:serif="http://www.serif.com/" style="fill-rule:evenodd;clip-rule:evenodd;stroke-miterlimit:1.41421;"><g><clipPath id="_clip1"><path d="M-21,-21l67,0l0,66.553l-67,0l0,-66.553Zm22,23.999c0,-1.102 0.894,-1.999 1.99,-1.999l19.019,0c1.101,0 1.991,0.892 1.991,1.999l0,18.557c0,1.102 -0.895,1.998 -1.991,1.998l-19.019,0c-1.101,0 -1.99,-0.891 -1.99,-1.998l0,-18.557Zm-2,0l0,18.557c0,2.211 1.784,3.997 3.99,3.997l19.019,0c2.201,0 3.991,-1.791 3.991,-3.997l0,-18.557c0,-2.211 -1.785,-3.999 -3.991,-3.999l-19.019,0c-2.201,0 -3.99,1.793 -3.99,3.999Z"/></clipPath><g clip-path="url(#_clip1)"><clipPath id="_clip2"><path d="M0,2.999c0,-1.656 1.344,-2.999 2.99,-2.999l19.019,0c1.651,0 2.991,1.338 2.991,2.999l0,18.557c0,1.656 -1.345,2.998 -2.991,2.998l-19.019,0c-1.651,0 -2.99,-1.337 -2.99,-2.998l0,-18.557Z"/></clipPath><g clip-path="url(#_clip2)"><path d="M0,2.999c0,-1.656 1.344,-2.999 2.99,-2.999l19.019,0c1.651,0 2.991,1.338 2.991,2.999l0,18.557c0,1.656 -1.345,2.998 -2.991,2.998l-19.019,0c-1.651,0 -2.99,-1.337 -2.99,-2.998l0,-18.557Z" style="fill:#eef1f7;fill-rule:nonzero;"/><clipPath id="_clip3"><path d="M0,2.999c0,-1.656 1.344,-2.999 2.99,-2.999l19.019,0c1.651,0 2.991,1.338 2.991,2.999l0,18.557c0,1.656 -1.345,2.998 -2.991,2.998l-19.019,0c-1.651,0 -2.99,-1.337 -2.99,-2.998l0,-18.557Z" clip-rule="nonzero"/></clipPath><g clip-path="url(#_clip3)"><path d="M0,2.999c0,-1.656 1.344,-2.999 2.99,-2.999l19.019,0c1.651,0 2.991,1.338 2.991,2.999l0,18.557c0,1.656 -1.345,2.998 -2.991,2.998l-19.019,0c-1.651,0 -2.99,-1.337 -2.99,-2.998l0,-18.557Z" style="fill:none;stroke:#153153;stroke-width:4px;"/></g></g></g><path d="M14.272,16.624c0.576,0 1.008,-0.12 1.32,-0.216l-0.276,-1.284c-0.156,0.06 -0.372,0.12 -0.564,0.12c-0.468,0 -0.768,-0.276 -0.768,-0.948l0,-2.388l1.428,0l0,-1.38l-1.428,0l0,-1.584l-1.464,0l-0.204,1.584l-0.912,0.072l0,1.308l0.816,0l0,2.412c0,1.38 0.576,2.304 2.052,2.304Z" style="fill:#153153;fill-rule:nonzero;"/></g></svg>