<?xml version="1.0" encoding="UTF-8" standalone="no"?><!DOCTYPE svg PUBLIC "-//W3C//DTD SVG 1.1//EN" "http://www.w3.org/Graphics/SVG/1.1/DTD/svg11.dtd"><svg width="100%" height="100%" viewBox="0 0 25 25" version="1.1" xmlns="http://www.w3.org/2000/svg" xmlns:xlink="http://www.w3.org/1999/xlink" xml:space="preserve" xmlns:serif="http://www.serif.com/" style="fill-rule:evenodd;clip-rule:evenodd;stroke-miterlimit:1.41421;"><g><clipPath id="_clip1"><path d="M-21,-21l67,0l0,66.553l-67,0l0,-66.553Zm22,23.999c0,-1.102 0.894,-1.999 1.99,-1.999l19.019,0c1.101,0 1.991,0.892 1.991,1.999l0,18.557c0,1.102 -0.895,1.998 -1.991,1.998l-19.019,0c-1.101,0 -1.99,-0.891 -1.99,-1.998l0,-18.557Zm-2,0l0,18.557c0,2.211 1.784,3.997 3.99,3.997l19.019,0c2.201,0 3.991,-1.791 3.991,-3.997l0,-18.557c0,-2.211 -1.785,-3.999 -3.991,-3.999l-19.019,0c-2.201,0 -3.99,1.793 -3.99,3.999Z"/></clipPath><g clip-path="url(#_clip1)"><clipPath id="_clip2"><path d="M0,2.999c0,-1.656 1.344,-2.999 2.99,-2.999l19.019,0c1.651,0 2.991,1.338 2.991,2.999l0,18.557c0,1.656 -1.345,2.998 -2.991,2.998l-19.019,0c-1.651,0 -2.99,-1.337 -2.99,-2.998l0,-18.557Z"/></clipPath><g clip-path="url(#_clip2)"><path d="M0,2.999c0,-1.656 1.344,-2.999 2.99,-2.999l19.019,0c1.651,0 2.991,1.338 2.991,2.999l0,18.557c0,1.656 -1.345,2.998 -2.991,2.998l-19.019,0c-1.651,0 -2.99,-1.337 -2.99,-2.998l0,-18.557Z" style="fill:#eef1f7;fill-rule:nonzero;"/><clipPath id="_clip3"><path d="M0,2.999c0,-1.656 1.344,-2.999 2.99,-2.999l19.019,0c1.651,0 2.991,1.338 2.991,2.999l0,18.557c0,1.656 -1.345,2.998 -2.991,2.998l-19.019,0c-1.651,0 -2.99,-1.337 -2.99,-2.998l0,-18.557Z" clip-rule="nonzero"/></clipPath><g clip-path="url(#_clip3)"><path d="M0,2.999c0,-1.656 1.344,-2.999 2.99,-2.999l19.019,0c1.651,0 2.991,1.338 2.991,2.999l0,18.557c0,1.656 -1.345,2.998 -2.991,2.998l-19.019,0c-1.651,0 -2.99,-1.337 -2.99,-2.998l0,-18.557Z" style="fill:none;stroke:#153153;stroke-width:4px;"/></g></g></g><path d="M4.78,16.48l1.764,0l0,-4.02c0.372,-0.384 0.72,-0.576 1.008,-0.576c0.504,0 0.732,0.264 0.732,1.128l0,3.468l1.764,0l0,-4.02c0.384,-0.384 0.72,-0.576 1.02,-0.576c0.504,0 0.732,0.264 0.732,1.128l0,3.468l1.764,0l0,-3.696c0,-1.488 -0.576,-2.4 -1.86,-2.4c-0.792,0 -1.344,0.456 -1.872,0.996c-0.3,-0.636 -0.804,-0.996 -1.644,-0.996c-0.78,0 -1.308,0.42 -1.8,0.912l-0.048,0l-0.12,-0.768l-1.44,0l0,5.952Z" style="fill:#153153;fill-rule:nonzero;"/><path d="M16.816,16.624c1.596,0 2.448,-0.84 2.448,-1.92c0,-1.092 -0.852,-1.512 -1.608,-1.788c-0.612,-0.228 -1.164,-0.372 -1.164,-0.756c0,-0.3 0.216,-0.468 0.672,-0.468c0.42,0 0.828,0.192 1.26,0.504l0.792,-1.056c-0.516,-0.384 -1.188,-0.756 -2.1,-0.756c-1.38,0 -2.28,0.756 -2.28,1.86c0,0.984 0.852,1.476 1.572,1.752c0.612,0.24 1.212,0.42 1.212,0.816c0,0.312 -0.228,0.504 -0.756,0.504c-0.504,0 -0.996,-0.216 -1.536,-0.624l-0.792,1.104c0.6,0.492 1.5,0.828 2.28,0.828Z" style="fill:#153153;fill-rule:nonzero;"/></g></svg>